<mxfile host="app.diagrams.net" modified="2023-07-10T02:07:05.688Z" agent="Mozilla/5.0 (Windows NT 10.0; Win64; x64) AppleWebKit/537.36 (KHTML, like Gecko) Chrome/114.0.0.0 Safari/537.36" version="21.6.1" etag="37yz6nMjJq7h_720_jE2" type="github">
  <diagram name="페이지-1" id="eea_hWhpXG7BSyuL8jXU">
    <mxGraphModel>
      <root>
        <mxCell id="0" />
        <mxCell id="1" parent="0" />
      </root>
    </mxGraphModel>
  </diagram>
</mxfile>
